<?xml version="1.0" encoding="utf-8"?>
<!-- Generator: Adobe Illustrator 27.2.0, SVG Export Plug-In . SVG Version: 6.00 Build 0)  -->
<svg version="1.1" id="Layer_1" xmlns="http://www.w3.org/2000/svg" xmlns:xlink="http://www.w3.org/1999/xlink" x="0px" y="0px"
	 viewBox="0 0 612 792" style="enable-background:new 0 0 612 792;" xml:space="preserve">
<style type="text/css">
	.st0{fill:none;stroke:#000000;stroke-width:5;stroke-miterlimit:10;}
</style>
<g>
	<path d="M39.1,596.9l57.6-32.1c0.9-0.5,1.6-0.8,2.1-0.8c0.7,0,1.3,0.3,1.9,0.8c0.5,0.5,0.8,1.2,0.8,1.9c0,1.1-0.7,2-2.2,2.8
		L50,596.9l49.3,27.4c1.4,0.8,2.2,1.7,2.2,2.8c0,0.7-0.3,1.3-0.8,1.9c-0.5,0.5-1.2,0.8-1.9,0.8c-0.5,0-1.2-0.3-2.1-0.8L39.1,596.9z"
		/>
	<path d="M172.2,584.3v-1.8c0-1.3,0.3-2.2,0.8-2.8c0.5-0.5,1.1-0.8,1.9-0.8c0.8,0,1.5,0.3,2,0.8c0.5,0.6,0.8,1.5,0.8,2.8v12.1
		c0,1.3-0.3,2.2-0.8,2.8c-0.5,0.6-1.1,0.8-1.9,0.8c-0.7,0-1.3-0.2-1.8-0.7c-0.5-0.5-0.8-1.3-0.9-2.4c-0.3-3-2.2-5.9-5.9-8.6
		c-3.7-2.7-8.7-4.1-15-4.1c-7.9,0-13.9,2.5-18,7.4c-4.1,5-6.2,10.6-6.2,17c0,6.9,2.3,12.6,6.8,17.1c4.5,4.5,10.4,6.7,17.6,6.7
		c4.1,0,8.4-0.8,12.7-2.3c4.3-1.5,8.2-4,11.6-7.4c0.9-0.8,1.7-1.3,2.3-1.3c0.7,0,1.3,0.2,1.8,0.7c0.5,0.5,0.7,1.1,0.7,1.8
		c0,1.8-2.1,4.1-6.4,6.9c-6.9,4.5-14.6,6.8-23,6.8c-8.6,0-15.6-2.7-21.2-8.2c-5.5-5.5-8.3-12.4-8.3-20.9c0-8.6,2.8-15.7,8.5-21.4
		c5.7-5.7,12.8-8.5,21.4-8.5C159.8,577,166.7,579.4,172.2,584.3z"/>
	<path d="M210.4,554.2V587c3.4-3.7,6.6-6.3,9.7-7.8c3.1-1.5,6.6-2.3,10.4-2.3c4.1,0,7.7,0.7,10.6,2.2c2.9,1.5,5.3,3.7,7.3,6.7
		c1.9,3,2.9,6.2,2.9,9.6v33.1h6c1.3,0,2.2,0.2,2.8,0.7c0.5,0.5,0.8,1.1,0.8,1.9c0,0.8-0.3,1.4-0.8,1.9c-0.5,0.5-1.5,0.8-2.8,0.8H240
		c-1.3,0-2.2-0.3-2.8-0.8c-0.6-0.5-0.8-1.1-0.8-1.9c0-0.8,0.3-1.4,0.8-1.9c0.5-0.5,1.5-0.7,2.8-0.7h6v-32.7c0-3.9-1.4-7.1-4.2-9.6
		c-2.8-2.6-6.6-3.9-11.6-3.9c-3.9,0-7.2,1-10,2.9c-2,1.4-5.3,4.5-9.8,9.6v33.8h6c1.3,0,2.2,0.2,2.7,0.7c0.5,0.5,0.8,1.1,0.8,1.9
		c0,0.8-0.3,1.4-0.8,1.9c-0.6,0.5-1.5,0.8-2.7,0.8h-17.4c-1.3,0-2.2-0.3-2.7-0.8c-0.6-0.5-0.8-1.1-0.8-1.9c0-0.8,0.3-1.4,0.8-1.9
		c0.5-0.5,1.5-0.7,2.7-0.7h6v-68.9h-7.2c-1.3,0-2.2-0.3-2.7-0.8c-0.6-0.5-0.8-1.2-0.8-2c0-0.8,0.3-1.4,0.8-1.9
		c0.5-0.5,1.5-0.8,2.7-0.8H210.4z"/>
	<path d="M334.9,607.7h-54.3c0.9,6.9,3.8,12.5,8.7,16.7c4.8,4.2,10.8,6.3,18,6.3c4,0,8.1-0.7,12.5-2c4.4-1.3,7.9-3,10.7-5.2
		c0.8-0.6,1.5-1,2.1-1c0.7,0,1.3,0.3,1.8,0.8c0.5,0.5,0.8,1.2,0.8,1.9c0,0.7-0.3,1.4-1,2.1c-2,2.1-5.6,4.1-10.8,5.9
		c-5.2,1.8-10.5,2.8-16,2.8c-9.1,0-16.8-3-22.9-9c-6.1-6-9.2-13.2-9.2-21.7c0-7.7,2.9-14.4,8.6-19.9c5.7-5.5,12.8-8.3,21.3-8.3
		c8.7,0,15.9,2.8,21.5,8.5C332.2,591.2,334.9,598.6,334.9,607.7z M329.5,602.3c-1.1-5.9-3.8-10.7-8.3-14.3
		c-4.5-3.7-9.9-5.5-16.1-5.5c-6.2,0-11.6,1.8-16.1,5.5c-4.5,3.6-7.3,8.4-8.4,14.4H329.5z"/>
	<path d="M401.6,582.4c0-1.2,0.3-2.1,0.8-2.7c0.5-0.5,1.1-0.8,1.9-0.8c0.8,0,1.5,0.3,2,0.8c0.5,0.6,0.8,1.5,0.8,2.8v9.1
		c0,1.3-0.3,2.2-0.8,2.7c-0.5,0.6-1.2,0.8-2,0.8c-0.7,0-1.3-0.2-1.8-0.7c-0.5-0.5-0.8-1.2-0.9-2.3c-0.3-2.5-1.6-4.6-3.9-6.3
		c-3.5-2.4-8.1-3.6-13.8-3.6c-6,0-10.6,1.2-13.9,3.6c-2.5,1.8-3.7,3.9-3.7,6.1c0,2.5,1.5,4.7,4.4,6.3c2,1.2,5.9,2.1,11.6,2.7
		c7.4,0.8,12.5,1.7,15.4,2.7c4.1,1.5,7.2,3.5,9.2,6.2c2,2.6,3,5.5,3,8.5c0,4.5-2.2,8.6-6.5,12.1c-4.4,3.5-10.8,5.3-19.2,5.3
		c-8.4,0-15.3-2.1-20.7-6.4c0,1.4-0.1,2.4-0.3,2.8c-0.2,0.4-0.5,0.8-0.9,1.1c-0.4,0.3-0.9,0.4-1.5,0.4c-0.8,0-1.4-0.3-1.9-0.8
		c-0.5-0.5-0.8-1.5-0.8-2.7v-11c0-1.3,0.2-2.2,0.7-2.7c0.5-0.5,1.1-0.8,1.9-0.8c0.8,0,1.4,0.3,1.9,0.8c0.5,0.5,0.8,1.2,0.8,2.1
		c0,1.9,0.5,3.6,1.5,4.9c1.5,2,3.8,3.7,7.1,5c3.2,1.3,7.2,2,11.9,2c6.9,0,12.1-1.3,15.5-3.9c3.4-2.6,5.1-5.3,5.1-8.2
		c0-3.3-1.7-5.9-5.1-7.9c-3.5-2-8.5-3.3-15.1-4c-6.6-0.7-11.4-1.6-14.3-2.7c-2.9-1.1-5.1-2.8-6.7-5c-1.6-2.2-2.4-4.6-2.4-7.1
		c0-4.6,2.2-8.2,6.7-10.9c4.5-2.7,9.8-4,16.1-4C391,577,397,578.8,401.6,582.4z"/>
	<path d="M479.7,582.4c0-1.2,0.3-2.1,0.8-2.7c0.5-0.5,1.1-0.8,1.9-0.8c0.8,0,1.5,0.3,2,0.8c0.5,0.6,0.8,1.5,0.8,2.8v9.1
		c0,1.3-0.3,2.2-0.8,2.7c-0.5,0.6-1.2,0.8-2,0.8c-0.7,0-1.3-0.2-1.8-0.7c-0.5-0.5-0.8-1.2-0.9-2.3c-0.3-2.5-1.6-4.6-3.9-6.3
		c-3.5-2.4-8.1-3.6-13.8-3.6c-6,0-10.6,1.2-13.9,3.6c-2.5,1.8-3.7,3.9-3.7,6.1c0,2.5,1.5,4.7,4.4,6.3c2,1.2,5.9,2.1,11.6,2.7
		c7.4,0.8,12.5,1.7,15.4,2.7c4.1,1.5,7.2,3.5,9.2,6.2c2,2.6,3,5.5,3,8.5c0,4.5-2.2,8.6-6.5,12.1c-4.4,3.5-10.8,5.3-19.2,5.3
		c-8.4,0-15.3-2.1-20.7-6.4c0,1.4-0.1,2.4-0.3,2.8c-0.2,0.4-0.5,0.8-0.9,1.1c-0.4,0.3-0.9,0.4-1.5,0.4c-0.8,0-1.4-0.3-1.9-0.8
		c-0.5-0.5-0.8-1.5-0.8-2.7v-11c0-1.3,0.2-2.2,0.7-2.7c0.5-0.5,1.1-0.8,1.9-0.8c0.8,0,1.4,0.3,1.9,0.8c0.5,0.5,0.8,1.2,0.8,2.1
		c0,1.9,0.5,3.6,1.5,4.9c1.5,2,3.8,3.7,7.1,5c3.2,1.3,7.2,2,11.9,2c6.9,0,12.1-1.3,15.5-3.9c3.4-2.6,5.1-5.3,5.1-8.2
		c0-3.3-1.7-5.9-5.1-7.9c-3.5-2-8.5-3.3-15.1-4c-6.6-0.7-11.4-1.6-14.3-2.7c-2.9-1.1-5.1-2.8-6.7-5c-1.6-2.2-2.4-4.6-2.4-7.1
		c0-4.6,2.2-8.2,6.7-10.9c4.5-2.7,9.8-4,16.1-4C469.1,577,475,578.8,479.7,582.4z"/>
	<path d="M572.9,596.9L515.2,629c-0.9,0.5-1.6,0.8-2.1,0.8c-0.7,0-1.3-0.3-1.9-0.8c-0.5-0.5-0.8-1.2-0.8-1.9c0-1.1,0.7-2,2.2-2.8
		l49.4-27.4l-49.3-27.4c-1.4-0.8-2.2-1.7-2.2-2.8c0-0.7,0.3-1.3,0.8-1.9c0.5-0.5,1.2-0.8,1.9-0.8c0.5,0,1.2,0.3,2.1,0.8L572.9,596.9
		z"/>
</g>
<path class="st0" d="M379,424.9c-9.9-3.7-17.3-13.8-16.1-24.4c0.7-6.4-2.1-9.7-6.1-13.4c-1.4-1.3-1.9-3.8-2.5-5.8
	c-0.4-1.7,0-3.6-0.5-5.2c-4.6-14.1-9.2-28.1-14.2-42.1c-1.1-3.1-0.5-4.7,2.2-5.8c2.9-1.2,6-2.2,8.9-3.5c5.1-2.4,10.4-5.5,10.2-11.6
	c-0.2-6.7-6.7-7.4-11.6-9c-3.7-1.2-7.7-1.7-12.2-2.6c3.8-6,7-11.4,10.4-16.7c5.5-8.5,9.8-17.2,7.8-27.8c-3.1-16.8-14.3-26-29.3-32
	c-2.6-1-5.3-2.8-6.8-5.1c-3.3-4.9-0.4-9,3.1-12.7c4.2-4.4,4.3-7.4,0.6-11.8c-6.4-7.5-22.6-7.8-29.3-0.4c-4,4.4-4.1,7.2-0.2,11.7
	c6.9,7.9,5,15-4.9,17.8c-13.7,3.9-22.6,12.8-27.6,25.7c-3.7,9.5-3.6,19,1.7,28.1c4.1,7,8.1,13.9,12.9,22.2
	c-5.5,1.3-10.2,2.3-14.9,3.5c-3.9,1-7.4,2.7-8.4,7.1c-1.1,4.6,1.5,7.7,4.8,9.8c4,2.5,8.6,4,12.7,6.4c1.5,0.9,3.4,3.6,3,5
	c-2.5,9.2-5.5,18.2-8.3,27.3c-2.5,8.1-4.8,16.2-7.2,24.2c-0.4,1.4-1.2,3.1-2.3,4c-4.6,3.9-6.3,8.5-6.5,14.7c-0.2,8.3-3,16-10.6,20.8
	c-4,2.5-8.4,4.4-12.5,6.7c-13.2,7.4-15.8,24.8-5.8,36c1.4,1.6,2.7,3.9,2.7,6c0.1,4.7-0.3,9.5-0.9,14.2c-2.2,19.3,0.6,23.8,19.4,28.2
	c35.2,8.2,70.8,8.1,106.5,4.2c10.5-1.1,20.8-3.9,31-6.6c8.3-2.1,13.8-8.1,14.1-16.6c0.3-8-0.8-16.2-2.4-24.1c-0.8-3.9-0.2-5.7,2.6-8
	c4.2-3.4,6.3-7.9,6.1-13.5C398.1,436.1,393.7,430.4,379,424.9z"/>
</svg>
